<?xml version="1.0" encoding="utf-8"?>
<!-- Generator: Adobe Illustrator 25.4.0, SVG Export Plug-In . SVG Version: 6.00 Build 0)  -->
<svg version="1.1" id="Vrstva_1" xmlns="http://www.w3.org/2000/svg" xmlns:xlink="http://www.w3.org/1999/xlink" x="0px" y="0px"
	 viewBox="0 0 288 560" style="enable-background:new 0 0 288 560;" xml:space="preserve">
<style type="text/css">
	.st0{fill:#0C77A5;}
	.st1{fill:#CBE3EB;}
	.st2{fill:#F8FBFB;}
</style>
<g>
	<path class="st0" d="M203,82c-4-3-10-6-13.54-6.94c-30.72-8.13-40.95,36.29-90.95,21.89c-0.03-0.32-0.06-0.64-0.09-0.96
		c12.73-0.33,26.99,0.29,37.89-7.13c1.95-1.62,16.96-12.96,14.54-14.3c-9.2-10.04-24.01-10.28-35.41-3.89
		c-8.59,4.89,9.79,12.7,13.71,14.97c-14.35,3.67-24.18-12.3-39.46-9.85c-24.44-3.28-38.37,28.96-29.22,48.92
		c9.09,23.48,19.55,47.52,20.2,73.05c-0.05,10.34,1.34,20.48,4.25,30.42c1.74,6.02,11.9,34.55,18.65,19.72
		c3.62-17.81,2.11-37.48,14.53-52.32c15.68-13.36,40.54-2.06,46.45,17.77c4.06,12.82,1.64,26.32,3.74,39.41
		c0.39,3.02,5.47-2.98,6.24-3.93c16.84-24.36,9.4-52.94,17.57-80.75C197.67,146.42,220,96,203,82c-1-7-6-10,4-8
		c23,20,5,61-0.54,80.42c-6.11,21.41-8.67,43.26-9.79,65.34c-3.05,16.79-9.86,45.31-30.56,45.82c-15.32-2.34-8.54-30.33-11.16-41.57
		c-1.42-2.35-4.03,4.09-3.76,5.61c-11.2,23.84-24.18,13.3-32.34-5.54c-3.41,69.36-45.18,38.37-48.15-9.61
		c-0.45-29.99-9.06-58.99-20.28-86.57c-2.55-5.93-3.43-12.25-3.11-18.66c0.07-24.06,22.13-49.06,47.48-42.84
		c11.47,3.18,19.78-6.91,30.59-8.39c20.73-5.15,27.26,14.91,42.97,9.83c12.49-4.62,28.31-1.66,38.65,6.16"/>
	<path class="st0" d="M128.53,220.06c1.17,3.57,3.04,6.83,4.47,10.29c0.34,0.83,0.8,1.61,1.57,2.14c1.79,1.24,3.99,0.57,5.29-1.71
		c1.28-2.26,2.1-4.71,2.68-7.23c1.94-3.39,3.39-7.02,5.1-10.53c1.71-3.51,1.14-5.84-2.1-8.05c-4.51-3.07-9.53-4.01-14.84-2.98
		c-4.53,0.88-7.69,4.82-6.84,8.65C124.62,214.12,126.28,217.26,128.53,220.06z"/>
	<path class="st0" d="M203,93"/>
	<path class="st1" d="M47.3,114.99c0,0-0.13,0-0.13,0l-0.13-0.02c0-1.91,0-3.82,0-5.73c0.09-0.01,0.18-0.01,0.28-0.01
		C47.3,111.15,47.3,113.07,47.3,114.99z"/>
	<path class="st1" d="M118.11,195.58c-3.96,5.43-7.09,11.26-9.09,17.71c-1.94,6.28-2.68,12.73-3.05,19.24
		c-0.29,5.2-1.41,10.27-2.4,15.36c-0.37,1.87-1.24,3.53-3.36,4.02c-2.35,0.53-4.02-0.58-5.28-2.39c-4.54-6.55-7.77-13.71-10-21.34
		c-2.9-9.93-4.29-20.07-4.25-30.42c0.05-10.65-2.28-20.89-5.22-31.05c-4.14-14.31-9.3-28.24-14.99-42
		c-5.84-14.11-2.46-31.1,8.52-41.66c5.3-5.1,11.51-8.28,19.18-7.58c0.52,0.05,1.07-0.08,1.52,0.32c-0.23,0.96-1.11,1-1.82,1.28
		c-1.11,0.44-2.33,0.14-3.44,0.46c-3.56,1.02-6.34,3.24-8.22,6.32c-1.95,3.2-0.76,8.67,3.9,9.84c1.99,0.5,4,0.89,6.03,1.24
		c4.06,0.72,8.17,0.83,12.28,1.05c0.03,0.32,0.06,0.64,0.09,0.96c-5.9,2.22-11.9,4.29-16.18,9.31c-3.9,4.57-6.36,9.76-7,15.82
		c-0.89,8.43,1.68,16.18,4.42,23.91c1.98,5.6,4.32,11.05,7.54,16.07c0.43,0.68,0.67,1.93,1.55,1.76c0.84-0.17,1.02-1.34,1.19-2.24
		c0.29-1.55,0.48-3.15,1.42-4.5c0.24-0.34,0.52-0.72,1.02-0.64c0.47,0.08,0.44,0.56,0.55,0.88c1.61,4.94,2.8,9.99,2.66,15.21
		c-0.07,2.83-0.65,5.65-0.99,8.47c-0.4,3.29-0.88,6.58-1.16,9.89c-0.9,10.73-0.66,21.49-0.65,32.23c0,4.63,1.61,9.03,4.27,11.72
		c0.35-0.61,0.19-1.24,0.19-1.83c-0.05-5.66,0.27-11.29,1.55-16.83c1.15-4.99,3.26-9.55,6.86-13.22
		C109.19,199.46,113.25,196.81,118.11,195.58z"/>
	<path class="st1" d="M199.28,142.4c-2.78,8.45-5.26,16.98-7.17,25.67c-2.28,10.35-3.89,20.8-5.05,31.34
		c-0.83,7.48-0.77,15.04-1.9,22.47c-1.48,9.75-4.99,18.79-10.62,26.94c-1.27,1.85-3.04,3.23-4.87,4.52
		c-0.87,0.61-1.18,0.56-1.37-0.59c-0.82-5.04-0.93-10.12-1.05-15.2c-0.17-7.35-0.05-14.74-2.08-21.92c-0.21-0.76-0.4-1.52-0.6-2.29
		c1.71,1.48,2.35,3.59,3.08,5.58c1.23,3.33,1.78,6.81,2.01,10.37c0.17,2.64,0.39,5.26-0.04,7.89c-0.17,1.01,0.25,1.85,1.19,2.18
		c1.01,0.35,1.94,0.08,2.65-0.87c3.55-4.82,5.47-10.22,5.7-16.2c0.23-5.98-0.28-11.93-0.91-17.87c-0.19-1.78-0.17-3.58-0.3-5.37
		c-0.52-7.24-0.68-14.52-0.3-21.76c0.51-9.78,2.97-19.08,8.18-27.5c1.1-1.78,2.82-2.93,4.58-4.28c0.39,1.65-1.04,3.14,0.07,4.9
		c1.39-2.97,2.72-5.72,3.94-8.52c0.38-0.86,1.29,0.3,1.6-0.69C213,87,209,107,199.28,142.4z"/>
	<path class="st1" d="M115.79,100.07c5.2-0.03,10.35-0.51,15.36-2.01c8.32-2.48,15.6-6.86,21.96-12.66
		c9.4-8.57,20.51-11.39,32.87-10.41c1.16,0.09,3.94,0.61,5.02,1.01c2.54,0.94,7,4,10,6c4.16,2.77,5,5,5,7c-9-8-11-8-15-9
		c-3-1-7.12,0.11-9.92,0.57c-6.34,1.03-12.14,3.28-16.96,7.62c-3.05,2.74-6.49,4.9-9.99,6.98c-5.87,3.51-12.2,5.8-18.95,6.91
		c-6.31,1.03-12.51,0.39-18.63-1.35C116.19,100.62,115.82,100.55,115.79,100.07z"/>
	<path class="st1" d="M128.53,220.06c-2.25-2.8-3.91-5.94-4.68-9.41c-0.85-3.83,2.31-7.77,6.84-8.65
		c5.31-1.03,10.33-0.09,14.84,2.98c3.25,2.21,3.82,4.54,2.1,8.05c-1.71,3.5-3.15,7.14-5.1,10.53c-0.76-1.76-0.57-3.69-0.94-5.52
		c-0.64-3.15-1.72-5.93-5.32-6.68c-3.89-0.81-7.67,0.51-7.73,5.7C128.53,218.05,128.53,219.06,128.53,220.06z"/>
	<path class="st1" d="M119.91,94.48c0.49-0.95,1.5-1.08,2.35-1.44c3.05-1.3,6.3-2.25,8.84-4.52c3.76-3.36,6.41-7.35,6-12.66
		c-0.21-2.66-1.58-4.87-3.38-6.83c-0.7-0.76-1.7-1.29-2.01-2.38c5.12-0.74,9.76,0.34,13.83,3.65c1.77,1.44,3.55,2.86,5.34,4.26
		c0.57,0.45,0.92,0.78,0.17,1.45c-4.86,4.32-9.31,9.12-14.71,12.84C131.38,92.27,126,94.4,119.91,94.48z"/>
	<path class="st2" d="M128.53,220.06c0-1,0-2.01,0.01-3.01c0.06-5.19,3.85-6.51,7.73-5.7c3.6,0.75,4.68,3.53,5.32,6.68
		c0.37,1.83,0.18,3.76,0.94,5.52c-0.59,2.52-1.4,4.97-2.68,7.23c-1.3,2.29-3.5,2.96-5.29,1.71c-0.77-0.53-1.23-1.32-1.57-2.14
		C131.57,226.89,129.69,223.63,128.53,220.06z"/>
	<path class="st1" d="M155.2,229.62c-1.34,0-2.68,0-4.01-0.01c0.07-2.32,0.98-4.28,2.61-5.92c0.57-0.57,0.95-0.56,1.16,0.31
		C155.38,225.87,155.8,227.72,155.2,229.62z"/>
</g>
</svg>
